# xmcd
#
# Track frame offsets:
#	150
#	16890
#	27405
#	44266
#	62487
#	77917
#	92697
#	100385
#	116505
#	133816
#	141526
#	159903
#	171106
#
# Disc length: 2449 seconds
#
# Revision: 0
# Processed by: cddbd v1.5.1PL0 Copyright (c) Steve Scherf et al.
# Submitted via: dBpowerAMP V4.0
#
DISCID=aa098f0d
DTITLE=John Reed and Jesse Taylor - South Side Guitar
DYEAR=2002
DGENRE=Blues
TTITLE0=Don't Give Up
TTITLE1=War Baby
TTITLE2=Sin Sa Shun
TTITLE3=Sensitive Parts
TTITLE4=Black Snake Moan
TTITLE5=Johanna Street
TTITLE6=Ram Buck Shush
TTITLE7=Memphis
TTITLE8=San Ho Zay
TTITLE9=Cajun Fiddle
TTITLE10=Sack O' Woe
TTITLE11=Last Date
TTITLE12=On The Banks Of The Ponchatrain
EXTD=
EXTT0=
EXTT1=
EXTT2=
EXTT3=
EXTT4=
EXTT5=
EXTT6=
EXTT7=
EXTT8=
EXTT9=
EXTT10=
EXTT11=
EXTT12=
PLAYORDER=
